Coordinates
version=1
nRows=13
nColumns=40
inDegrees=yes

Units are S.I. units (second, meters, Newtons, ...)
Angles are in degrees.

endheader
time	pelvis_tilt	pelvis_list	pelvis_rotation	pelvis_tx	pelvis_ty	pelvis_tz	hip_flexion_r	hip_adduction_r	hip_rotation_r	knee_angle_r	knee_angle_r_beta	ankle_angle_r	subtalar_angle_r	mtp_angle_r	hip_flexion_l	hip_adduction_l	hip_rotation_l	knee_angle_l	knee_angle_l_beta	ankle_angle_l	subtalar_angle_l	mtp_angle_l	lumbar_extension	lumbar_bending	lumbar_rotation	arm_flex_r	arm_add_r	arm_rot_r	elbow_flex_r	pro_sup_r	wrist_flex_r	wrist_dev_r	arm_flex_l	arm_add_l	arm_rot_l	elbow_flex_l	pro_sup_l	wrist_flex_l	wrist_dev_l
      6.85042857	     -3.66099474	     -5.92859896	     -2.00579820	      1.03487230	      0.93628202	      0.42285281	     30.29135556	     -4.42582764	     -7.39679569	     39.61471345	     39.61471345	      1.95636787	    -11.59510193	     -0.60387411	     13.72421498	     -6.37427179	     -8.24482378	     20.51537060	     20.51537060	     12.07463031	    -12.29032835	     -0.75334363	    -11.10598295	      5.64437501	      2.45741873	      0.77536765	    -15.39805152	     -8.33228543	     23.89605672	     47.38014194	      0.00000000	      0.00000000	     21.36202980	    -18.23778884	      6.42734598	     48.48594810	     45.46066296	      0.00000000	      0.00000000
      6.86335714	     -3.76374949	     -5.87245874	     -2.42528001	      1.03396916	      0.93612865	      0.42300723	     30.17332286	     -4.30629779	     -7.84622764	     36.20963362	     36.20963362	      1.56976087	    -10.29800335	     -0.43782113	     13.38131153	     -6.36580782	     -8.64657679	     20.39390322	     20.39390322	     12.30866440	    -12.22375676	     -0.87749548	    -11.18276335	      5.61073758	      2.57459803	     -0.51210529	    -15.74928707	     -9.00465236	     23.77436003	     47.42240609	      0.00000000	      0.00000000	     21.46541695	    -18.55799182	      5.85930690	     50.53323152	     45.54848861	      0.00000000	      0.00000000
      6.87628571	     -3.97396278	     -5.80293149	     -2.80665495	      1.03307720	      0.93579377	      0.42322642	     30.04991757	     -4.16684592	     -8.37284266	     32.70126232	     32.70126232	      1.11609051	     -8.77756153	     -0.14644354	     13.15614930	     -6.34529844	     -9.04346473	     20.24823675	     20.24823675	     12.49641923	    -12.16810394	     -0.98156828	    -11.06989397	      5.62173665	      2.55056703	     -1.64193457	    -15.99202394	     -9.51145663	     23.69270460	     47.45170559	      0.00000000	      0.00000000	     21.52755502	    -18.88133082	      5.36979043	     52.04810494	     45.61960075	      0.00000000	      0.00000000
      6.88921429	     -4.09337805	     -5.64801671	     -3.17641523	      1.03235038	      0.93538622	      0.42362356	     29.72887705	     -4.11975640	     -9.03811315	     29.17461997	     29.17461997	      0.36902428	     -6.78707517	     -1.06295988	     12.85244344	     -6.27513354	     -9.57220315	     20.17036326	     20.17036326	     12.75366548	    -11.85660626	     -1.24908005	    -11.19661051	      5.43818002	      2.07386817	     -2.73149524	    -15.96965310	    -11.99818499	     24.88846978	     47.54894278	      0.00000000	      0.00000000	     20.20112553	    -19.52839280	      3.37672660	     56.51912007	     45.89744085	      0.00000000	      0.00000000
      6.90214286	     -4.28257653	     -5.54547702	     -3.49694215	      1.03170871	      0.93497351	      0.42417216	     29.37407163	     -3.90836696	     -9.54380149	     25.69033339	     25.69033339	     -0.08773266	     -4.81663890	     -0.47091879	     12.59903193	     -6.22326154	     -9.87503666	     20.02340120	     20.02340120	     12.94013494	    -11.81713071	     -1.35553939	    -11.04033999	      5.35748739	      2.13810996	     -3.67683267	    -16.13544316	    -12.24017597	     24.53078292	     47.56818032	      0.00000000	      0.00000000	     20.51511495	    -19.60115443	      3.09268236	     57.16124733	     45.94142565	      0.00000000	      0.00000000
      6.91507143	     -4.40026848	     -5.41809772	     -3.75895970	      1.03122847	      0.93456649	      0.42477547	     28.86899593	     -3.75335011	    -10.21261678	     22.38097076	     22.38097076	     -0.43121120	     -2.41290507	      0.11971185	     12.25572336	     -6.14409538	    -10.21956806	     19.85815203	     19.85815203	     13.16080002	    -11.66041957	     -1.51874569	    -10.97526070	      5.25486437	      2.27631378	     -4.62633612	    -16.22459511	    -12.51348263	     24.35453356	     47.58114791	      0.00000000	      0.00000000	     20.73257896	    -19.59809040	      2.75056375	     58.06723144	     45.99273520	      0.00000000	      0.00000000
      6.92800000	     -4.41222802	     -5.17480736	     -3.98548953	      1.03102422	      0.93411511	      0.42540359	     28.32064798	     -3.83980551	    -11.27855007	     19.60058733	     19.60058733	     -0.42862049	      0.87247421	      0.96041274	     11.77958523	     -5.95766364	    -10.69115713	     19.68748174	     19.68748174	     13.40976006	    -11.25397053	     -1.87443457	    -11.03695308	      5.02425300	      2.30590768	     -5.70565820	    -16.20725185	    -13.39318676	     24.90529812	     47.58835763	      0.00000000	      0.00000000	     20.52659911	    -19.60719693	      1.84702460	     59.91625323	     46.12140708	      0.00000000	      0.00000000
      6.94092857	     -4.40539898	     -5.03784965	     -4.13755726	      1.03098768	      0.93369550	      0.42627623	     27.63075709	     -3.67201058	    -11.98412821	     16.97478220	     16.97478220	     -0.53570244	      3.00542584	      1.94215244	     11.29543813	     -5.86004041	    -10.96619419	     19.54210699	     19.54210699	     13.65994461	    -11.11567511	     -2.09746839	    -11.00934881	      4.84945919	      2.33146538	     -6.50679810	    -16.19280252	    -13.76869962	     25.02661483	     47.58938486	      0.00000000	      0.00000000	     20.54170476	    -19.58793399	      1.43782630	     60.81396885	     46.18313810	      0.00000000	      0.00000000
      6.95385714	     -4.63290291	     -4.59668949	     -4.29259699	      1.03087783	      0.93273176	      0.42727426	     27.47062159	     -3.77095665	    -12.02448117	     15.16093130	     15.16093130	     -0.64104888	      4.23439316	      2.51425741	     11.15833933	     -5.46259008	    -11.20712427	     19.52075759	     19.52075759	     13.86233947	    -11.03835443	     -2.27760452	    -10.66159909	      4.38065915	      2.22437936	     -7.20807152	    -15.99402207	    -13.87197033	     24.94002107	     47.58894300	      0.00000000	      0.00000000	     20.60801286	    -19.69698407	      1.25018786	     61.18847026	     46.20844501	      0.00000000	      0.00000000
      6.96678571	     -4.57872779	     -4.59083081	     -4.34267271	      1.03131197	      0.93247190	      0.42839075	     26.52652185	     -3.50705470	    -12.89841460	     13.12274630	     13.12274630	     -0.61010689	      6.32427564	      3.40020811	     10.48606125	     -5.48853096	    -11.40840873	     19.15276547	     19.15276547	     14.13011707	    -10.74549207	     -2.48682067	    -10.63561217	      4.42525136	      2.31419998	     -7.82171450	    -15.84667250	    -14.08114675	     25.12542318	     47.58095856	      0.00000000	      0.00000000	     20.54267236	    -19.41527059	      1.00659425	     61.99148060	     46.24808825	      0.00000000	      0.00000000
      6.97971429	     -4.50289338	     -4.40504844	     -4.38732860	      1.03192135	      0.93206827	      0.42961042	     25.83269450	     -3.49177687	    -13.66168457	     12.02733213	     12.02733213	     -0.29409398	      8.01786647	      4.19727548	      9.83130979	     -5.33888582	    -11.60913916	     18.87004165	     18.87004165	     14.34765731	    -10.37501622	     -2.77408268	    -10.55059001	      4.20886749	      2.29547824	     -8.41214968	    -15.64525693	    -14.34404558	     25.50557785	     47.56510781	      0.00000000	      0.00000000	     20.34738765	    -19.23427524	      0.66918955	     62.74205050	     46.29619383	      0.00000000	      0.00000000
      6.99264286	     -4.43900656	     -4.19758364	     -4.37609938	      1.03265110	      0.93155717	      0.43088544	     25.20179111	     -3.52484351	    -14.26083598	     11.45783926	     11.45783926	      0.17355583	      9.13256080	      4.93774258	      9.20206120	     -5.16261145	    -11.80210571	     18.60917248	     18.60917248	     14.58674392	    -10.06800493	     -3.13239060	    -10.45084243	      4.02163546	      2.16862199	     -8.94483800	    -15.37380333	    -14.65590826	     26.09615783	     47.53700385	      0.00000000	      0.00000000	     19.98954266	    -19.05328771	      0.24697713	     63.39585249	     46.35429980	      0.00000000	      0.00000000
      7.00557143	     -4.53634692	     -4.02403012	     -4.35203011	      1.03339346	      0.93066356	      0.43244023	     24.81922567	     -3.46764775	    -14.31788224	     11.36403813	     11.36403813	      0.50933351	      9.14993740	      4.89730762	      8.88638460	     -5.05067646	    -11.77721077	     18.60322138	     18.60322138	     14.91797901	    -10.08558336	     -3.28201252	    -10.09051353	      3.82984893	      2.05336289	     -9.11898953	    -15.14225514	    -14.65778327	     26.09875018	     47.53270963	      0.00000000	      0.00000000	     19.83411052	    -18.91903919	      0.25792984	     63.41212181	     46.35414926	      0.00000000	      0.00000000
